<svg width="17" height="17" viewBox="0 0 17 17" fill="none" xmlns="http://www.w3.org/2000/svg">
<path d="M17 2.65393C16.9993 1.9437 16.7217 1.27639 16.2181 0.774843C15.1796 -0.259641 13.4911 -0.258214 12.4537 0.778734L1.73729 11.5201C1.38871 11.8678 1.12264 12.2983 0.967772 12.765L0.957768 12.7954L0 17L4.22343 16.056L4.25487 16.0457C4.72258 15.8911 5.15405 15.6257 5.50353 15.2769L16.2214 4.53431C16.7241 4.03186 17.0006 3.36404 17 2.65393ZM2.34206 15.1165L1.89423 14.6692L2.2176 13.2492L3.76793 14.7978L2.34206 15.1165ZM15.2801 3.59711L4.87498 14.0264L2.99075 12.1442L10.1183 5.0002L11.2036 6.08371L12.1436 5.14533L11.0563 4.05987L12.0675 3.04653L13.1567 4.13393L14.0967 3.19556L13.0055 2.10621L13.3949 1.71594C13.9139 1.19714 14.7593 1.19637 15.2792 1.71426C15.5313 1.96535 15.6703 2.29946 15.6707 2.65497C15.6709 3.0106 15.5326 3.34484 15.2801 3.59711ZM6.99306 15.6585H17V16.9856H5.66827L6.99306 15.6585Z" fill="#7393B1"/>
</svg>
